<svg id="ic-upload" xmlns="http://www.w3.org/2000/svg" xmlns:xlink="http://www.w3.org/1999/xlink" width="28" height="35.342" viewBox="0 0 28 35.342">
  <defs>
    <clipPath id="clip-path">
      <rect id="Rectangle_5630" data-name="Rectangle 5630" width="28" height="35.342" fill="#150941"/>
    </clipPath>
  </defs>
  <g id="Group_30477" data-name="Group 30477" clip-path="url(#clip-path)">
    <path id="Path_22607" data-name="Path 22607" d="M19.045.273A.855.855,0,0,0,18.431,0H4.644A4.664,4.664,0,0,0,0,4.635V30.706a4.664,4.664,0,0,0,4.644,4.636H23.356A4.664,4.664,0,0,0,28,30.706V10a.918.918,0,0,0-.248-.6Zm.248,2.74,5.831,6.121h-3.79A2.033,2.033,0,0,1,19.293,7.1Zm4.063,30.621H4.644a2.957,2.957,0,0,1-2.937-2.928V4.635A2.957,2.957,0,0,1,4.644,1.707H17.585V7.1a3.734,3.734,0,0,0,3.748,3.739h4.96V30.706a2.951,2.951,0,0,1-2.937,2.928" transform="translate(0 0)" fill="#150941"/>
    <path id="Path_22608" data-name="Path 22608" d="M104.266,186.808a.856.856,0,0,1-.854.854H89.353a.854.854,0,1,1,0-1.707H103.4a.858.858,0,0,1,.862.854M92.007,176.769l3.517-3.782v9.322a.854.854,0,0,0,1.707,0v-9.322l3.517,3.782A.852.852,0,0,0,102,175.608l-5-5.37a.847.847,0,0,0-1.246,0l-5,5.37a.851.851,0,0,0,.043,1.2.871.871,0,0,0,1.221-.043" transform="translate(-82.378 -158.21)" fill="#150941"/>
  </g>
</svg>
