<?xml version="1.0" encoding="utf-8"?>
<!-- Generator: Adobe Illustrator 27.8.1, SVG Export Plug-In . SVG Version: 6.00 Build 0)  -->
<svg version="1.1" id="arrow" xmlns="http://www.w3.org/2000/svg" xmlns:xlink="http://www.w3.org/1999/xlink" x="0px" y="0px"
	 viewBox="0 0 102 34.5" style="enable-background:new 0 0 102 34.5;" xml:space="preserve">
<style type="text/css">
	.st0{fill:#160E41;}
</style>
<path id="arrow_00000010999944886327059420000004160398175629895572_" transform="translate(-1216.5 -3560.619)" class="st0" d="
	M1318.5,3580.5h-4v-4h4V3580.5z M1310.5,3579.9h-4v-4h4V3579.9z M1302.5,3579.9h-4v-4h4V3579.9z M1294.5,3579.9h-4v-4h4V3579.9z
	 M1286.5,3579.9h-4v-4h4V3579.9z M1278.5,3579.9h-4v-4h4V3579.9z M1270.5,3579.9h-4v-4h4V3579.9z M1262.5,3579.9h-4v-4h4V3579.9z
	 M1254.5,3579.9h-4v-4h4V3579.9z M1246.5,3579.9h-4v-4h4V3579.9z M1238.5,3579.9h-4v-4h4V3579.9z M1230.5,3579.9h-4v-4h4V3579.9z
	 M1222.5,3579.9h-4v-4h4V3579.9z M1223,3577.6l-2.8-2.8l2.8-2.8l2.8,2.8L1223,3577.6z M1228.7,3571.9l-2.8-2.8l2.8-2.8l2.8,2.8
	L1228.7,3571.9z M1234.4,3566.3l-2.8-2.8l2.8-2.8l2.8,2.8L1234.4,3566.3z M1234.4,3595.1l-2.8-2.8l2.8-2.8l2.8,2.8L1234.4,3595.1z
	 M1228.7,3589.5l-2.8-2.8l2.8-2.8l2.8,2.8L1228.7,3589.5z M1223,3583.8l-2.8-2.8l2.8-2.8l2.8,2.8L1223,3583.8z"/>
</svg>
